{
    "asset" : {
        "generator" : "Khronos glTF Blender I/O v1.5.17",
        "version" : "2.0"
    },
    "scene" : 0,
    "scenes" : [
        {
            "name" : "Scene",
            "nodes" : [
                0
            ]
        }
    ],
    "nodes" : [
        {
            "mesh" : 0,
            "name" : "model_Foto_nice_20250202_124908214",
            "rotation" : [
                -0.006383039522916079,
                -0.7108071446418762,
                -0.006450911983847618,
                0.7033284902572632
            ],
            "scale" : [
                0.7926167249679565,
                0.7926167249679565,
                0.7926167249679565
            ],
            "translation" : [
                -0.08843326568603516,
                0.4882168173789978,
                0
            ]
        }
    ],
    "materials" : [
        {
            "doubleSided" : true,
            "name" : "material0.003",
            "pbrMetallicRoughness" : {
                "baseColorTexture" : {
                    "index" : 0
                },
                "metallicFactor" : 0
            }
        }
    ],
    "meshes" : [
        {
            "name" : "model_Foto_nice_20250202_124908214",
            "primitives" : [
                {
                    "attributes" : {
                        "POSITION" : 0,
                        "NORMAL" : 1,
                        "TEXCOORD_0" : 2
                    },
                    "indices" : 3,
                    "material" : 0
                }
            ]
        }
    ],
    "textures" : [
        {
            "sampler" : 0,
            "source" : 0
        }
    ],
    "images" : [
        {
            "mimeType" : "image/jpeg",
            "name" : "texture",
            "uri" : "texture.jpg"
        }
    ],
    "accessors" : [
        {
            "bufferView" : 0,
            "componentType" : 5126,
            "count" : 16367,
            "max" : [
                0.7299990057945251,
                0.5638049840927124,
                -0.053040001541376114
            ],
            "min" : [
                -0.6774880290031433,
                -0.5937430262565613,
                -0.17450200021266937
            ],
            "type" : "VEC3"
        },
        {
            "bufferView" : 1,
            "componentType" : 5126,
            "count" : 16367,
            "type" : "VEC3"
        },
        {
            "bufferView" : 2,
            "componentType" : 5126,
            "count" : 16367,
            "type" : "VEC2"
        },
        {
            "bufferView" : 3,
            "componentType" : 5123,
            "count" : 17736,
            "type" : "SCALAR"
        }
    ],
    "bufferViews" : [
        {
            "buffer" : 0,
            "byteLength" : 196404,
            "byteOffset" : 0
        },
        {
            "buffer" : 0,
            "byteLength" : 196404,
            "byteOffset" : 196404
        },
        {
            "buffer" : 0,
            "byteLength" : 130936,
            "byteOffset" : 392808
        },
        {
            "buffer" : 0,
            "byteLength" : 35472,
            "byteOffset" : 523744
        }
    ],
    "samplers" : [
        {
            "magFilter" : 9729,
            "minFilter" : 9987
        }
    ],
    "buffers" : [
        {
            "byteLength" : 559216,
            "uri" : "foto_up.bin"
        }
    ]
}
