{
    "asset" : {
        "generator" : "Khronos glTF Blender I/O v1.5.17",
        "version" : "2.0"
    },
    "scene" : 0,
    "scenes" : [
        {
            "name" : "Scene",
            "nodes" : [
                0
            ]
        }
    ],
    "nodes" : [
        {
            "mesh" : 0,
            "name" : "model_biblia fechada_20250202_124702353",
            "rotation" : [
                0.7017509341239929,
                0.08686617761850357,
                -0.08686619251966476,
                0.7017508149147034
            ],
            "scale" : [
                0.002096255775541067,
                0.002096255775541067,
                0.002096255775541067
            ]
        }
    ],
    "materials" : [
        {
            "doubleSided" : true,
            "name" : "material0",
            "pbrMetallicRoughness" : {
                "baseColorTexture" : {
                    "index" : 0
                },
                "metallicFactor" : 0
            }
        }
    ],
    "meshes" : [
        {
            "name" : "model_biblia fechada_20250202_124702353",
            "primitives" : [
                {
                    "attributes" : {
                        "POSITION" : 0,
                        "NORMAL" : 1,
                        "TEXCOORD_0" : 2
                    },
                    "indices" : 3,
                    "material" : 0
                }
            ]
        }
    ],
    "textures" : [
        {
            "sampler" : 0,
            "source" : 0
        }
    ],
    "images" : [
        {
            "mimeType" : "image/jpeg",
            "name" : "texture",
            "uri" : "texture.jpg"
        }
    ],
    "accessors" : [
        {
            "bufferView" : 0,
            "componentType" : 5126,
            "count" : 11691,
            "max" : [
                227.99769592285156,
                132.05520629882812,
                14.520721435546875
            ],
            "min" : [
                -137.89248657226562,
                -86.62425231933594,
                -62.983428955078125
            ],
            "type" : "VEC3"
        },
        {
            "bufferView" : 1,
            "componentType" : 5126,
            "count" : 11691,
            "type" : "VEC3"
        },
        {
            "bufferView" : 2,
            "componentType" : 5126,
            "count" : 11691,
            "type" : "VEC2"
        },
        {
            "bufferView" : 3,
            "componentType" : 5123,
            "count" : 11691,
            "type" : "SCALAR"
        }
    ],
    "bufferViews" : [
        {
            "buffer" : 0,
            "byteLength" : 140292,
            "byteOffset" : 0
        },
        {
            "buffer" : 0,
            "byteLength" : 140292,
            "byteOffset" : 140292
        },
        {
            "buffer" : 0,
            "byteLength" : 93528,
            "byteOffset" : 280584
        },
        {
            "buffer" : 0,
            "byteLength" : 23382,
            "byteOffset" : 374112
        }
    ],
    "samplers" : [
        {
            "magFilter" : 9729,
            "minFilter" : 9987
        }
    ],
    "buffers" : [
        {
            "byteLength" : 397496,
            "uri" : "biblia_fechada.bin"
        }
    ]
}
