{
    "asset" : {
        "generator" : "Khronos glTF Blender I/O v1.5.17",
        "version" : "2.0"
    },
    "scene" : 0,
    "scenes" : [
        {
            "name" : "Scene",
            "nodes" : [
                0
            ]
        }
    ],
    "nodes" : [
        {
            "mesh" : 0,
            "name" : "dorthe little scult",
            "rotation" : [
                0.09358613938093185,
                -0.40238773822784424,
                0.041918184608221054,
                0.9097079634666443
            ],
            "translation" : [
                14.229469299316406,
                8.679421424865723,
                0
            ]
        }
    ],
    "materials" : [
        {
            "doubleSided" : true,
            "name" : "dorthe little scult",
            "pbrMetallicRoughness" : {
                "baseColorTexture" : {
                    "index" : 0
                },
                "metallicFactor" : 0
            }
        }
    ],
    "meshes" : [
        {
            "name" : "dorthe little scult",
            "primitives" : [
                {
                    "attributes" : {
                        "POSITION" : 0,
                        "NORMAL" : 1,
                        "TEXCOORD_0" : 2
                    },
                    "indices" : 3,
                    "material" : 0
                }
            ]
        }
    ],
    "textures" : [
        {
            "sampler" : 0,
            "source" : 0
        }
    ],
    "images" : [
        {
            "mimeType" : "image/jpeg",
            "name" : "dorthe little scult",
            "uri" : "dorthe%20little%20scult.jpg"
        }
    ],
    "accessors" : [
        {
            "bufferView" : 0,
            "componentType" : 5126,
            "count" : 30649,
            "max" : [
                12.895920753479004,
                10.217174530029297,
                6.180021286010742
            ],
            "min" : [
                -15.354991912841797,
                -6.193974494934082,
                -6.286362648010254
            ],
            "type" : "VEC3"
        },
        {
            "bufferView" : 1,
            "componentType" : 5126,
            "count" : 30649,
            "type" : "VEC3"
        },
        {
            "bufferView" : 2,
            "componentType" : 5126,
            "count" : 30649,
            "type" : "VEC2"
        },
        {
            "bufferView" : 3,
            "componentType" : 5123,
            "count" : 106731,
            "type" : "SCALAR"
        }
    ],
    "bufferViews" : [
        {
            "buffer" : 0,
            "byteLength" : 367788,
            "byteOffset" : 0
        },
        {
            "buffer" : 0,
            "byteLength" : 367788,
            "byteOffset" : 367788
        },
        {
            "buffer" : 0,
            "byteLength" : 245192,
            "byteOffset" : 735576
        },
        {
            "buffer" : 0,
            "byteLength" : 213462,
            "byteOffset" : 980768
        }
    ],
    "samplers" : [
        {
            "magFilter" : 9729,
            "minFilter" : 9987
        }
    ],
    "buffers" : [
        {
            "byteLength" : 1194232,
            "uri" : "4_little_statues.bin"
        }
    ]
}
