{
    "asset" : {
        "generator" : "Khronos glTF Blender I/O v1.5.17",
        "version" : "2.0"
    },
    "scene" : 0,
    "scenes" : [
        {
            "name" : "Scene",
            "nodes" : [
                0
            ]
        }
    ],
    "nodes" : [
        {
            "mesh" : 0,
            "name" : "model_New Qlone_20240225_113114858",
            "rotation" : [
                0.6992869973182678,
                -0.007648555561900139,
                0.0007967713754624128,
                0.714799702167511
            ],
            "scale" : [
                0.12104262411594391,
                0.12104260176420212,
                0.12104262411594391
            ],
            "translation" : [
                -6.057910919189453,
                15.742789268493652,
                -103.81681060791016
            ]
        }
    ],
    "materials" : [
        {
            "doubleSided" : true,
            "name" : "material0",
            "pbrMetallicRoughness" : {
                "baseColorTexture" : {
                    "index" : 0
                },
                "metallicFactor" : 0
            }
        }
    ],
    "meshes" : [
        {
            "name" : "model_New Qlone_20240225_113114858",
            "primitives" : [
                {
                    "attributes" : {
                        "POSITION" : 0,
                        "NORMAL" : 1,
                        "TEXCOORD_0" : 2
                    },
                    "indices" : 3,
                    "material" : 0
                }
            ]
        }
    ],
    "textures" : [
        {
            "sampler" : 0,
            "source" : 0
        }
    ],
    "images" : [
        {
            "mimeType" : "image/jpeg",
            "name" : "texture",
            "uri" : "texture.jpg"
        }
    ],
    "accessors" : [
        {
            "bufferView" : 0,
            "componentType" : 5126,
            "count" : 150000,
            "max" : [
                687.4552612304688,
                724.6919555664062,
                125.62088012695312
            ],
            "min" : [
                -726.4229125976562,
                -734.6548461914062,
                -229.0244903564453
            ],
            "type" : "VEC3"
        },
        {
            "bufferView" : 1,
            "componentType" : 5126,
            "count" : 150000,
            "type" : "VEC3"
        },
        {
            "bufferView" : 2,
            "componentType" : 5126,
            "count" : 150000,
            "type" : "VEC2"
        },
        {
            "bufferView" : 3,
            "componentType" : 5125,
            "count" : 150000,
            "type" : "SCALAR"
        }
    ],
    "bufferViews" : [
        {
            "buffer" : 0,
            "byteLength" : 1800000,
            "byteOffset" : 0
        },
        {
            "buffer" : 0,
            "byteLength" : 1800000,
            "byteOffset" : 1800000
        },
        {
            "buffer" : 0,
            "byteLength" : 1200000,
            "byteOffset" : 3600000
        },
        {
            "buffer" : 0,
            "byteLength" : 600000,
            "byteOffset" : 4800000
        }
    ],
    "samplers" : [
        {
            "magFilter" : 9729,
            "minFilter" : 9987
        }
    ],
    "buffers" : [
        {
            "byteLength" : 5400000,
            "uri" : "11_plant.bin"
        }
    ]
}
