{
    "asset" : {
        "generator" : "Khronos glTF Blender I/O v1.5.17",
        "version" : "2.0"
    },
    "extensionsUsed" : [
        "KHR_materials_unlit"
    ],
    "scene" : 0,
    "scenes" : [
        {
            "name" : "Scene",
            "nodes" : [
                0,
                14
            ]
        }
    ],
    "nodes" : [
        {
            "mesh" : 0,
            "name" : "mesh_0",
            "rotation" : [
                0.02903291955590248,
                0.19507083296775818,
                -0.1310127228498459,
                0.971565842628479
            ],
            "scale" : [
                0.00041981603135354817,
                0.00041981611866503954,
                0.00041981603135354817
            ],
            "translation" : [
                0,
                0.19696465134620667,
                0
            ]
        },
        {
            "name" : "LeftToes",
            "translation" : [
                0.0623697005212307,
                -0.008911130018532276,
                -0.006016340106725693
            ]
        },
        {
            "children" : [
                1
            ],
            "name" : "LeftFoot",
            "translation" : [
                0.1326729953289032,
                -0.008911130018532276,
                -0.07223310321569443
            ]
        },
        {
            "children" : [
                2
            ],
            "name" : "LeftLeg",
            "translation" : [
                0.13118399679660797,
                -0.01342769991606474,
                -0.08103670179843903
            ]
        },
        {
            "children" : [
                3
            ],
            "name" : "LeftUpLeg",
            "translation" : [
                0.062432799488306046,
                -0.040161099284887314,
                0.02113880030810833
            ]
        },
        {
            "name" : "RightToes",
            "translation" : [
                0.01605590060353279,
                0,
                -0.038935400545597076
            ]
        },
        {
            "children" : [
                5
            ],
            "name" : "RightFoot",
            "translation" : [
                0.027709899470210075,
                -0.017822299152612686,
                -0.07712669670581818
            ]
        },
        {
            "children" : [
                6
            ],
            "name" : "RightLeg",
            "translation" : [
                0.005700829904526472,
                -0.017822299152612686,
                -0.07340580224990845
            ]
        },
        {
            "children" : [
                7
            ],
            "name" : "RightUpLeg",
            "translation" : [
                -0.009484710171818733,
                -0.03125,
                0.024241600185632706
            ]
        },
        {
            "name" : "Head1",
            "translation" : [
                -0.3319779932498932,
                0.245605006814003,
                0.5269970297813416
            ]
        },
        {
            "children" : [
                9
            ],
            "name" : "Head",
            "rotation" : [
                -0.028578191995620728,
                -0.01658269576728344,
                -0.01218869723379612,
                0.9993797540664673
            ],
            "translation" : [
                -0.0016247399616986513,
                0.021091099828481674,
                0.002076609991490841
            ]
        },
        {
            "children" : [
                10
            ],
            "name" : "Neck",
            "rotation" : [
                0.023264406248927116,
                -0.012723802588880062,
                0.002528200624510646,
                0.9996452331542969
            ],
            "translation" : [
                0.0037013799883425236,
                0.0237319003790617,
                -0.00045198999578133225
            ]
        },
        {
            "children" : [
                11
            ],
            "name" : "Chest",
            "translation" : [
                -0.2436390072107315,
                0.017944300547242165,
                0.32642900943756104
            ]
        },
        {
            "children" : [
                12
            ],
            "name" : "Spine",
            "translation" : [
                -0.08833889663219452,
                0.22766099870204926,
                0.20056700706481934
            ]
        },
        {
            "children" : [
                4,
                8,
                13
            ],
            "name" : "Hips",
            "translation" : [
                0.0025348500348627567,
                1553.0400390625,
                -0.17247900366783142
            ]
        }
    ],
    "materials" : [
        {
            "doubleSided" : true,
            "extensions" : {
                "KHR_materials_unlit" : {}
            },
            "name" : "Humanoid_arms",
            "pbrMetallicRoughness" : {
                "baseColorTexture" : {
                    "index" : 0
                },
                "metallicFactor" : 0,
                "roughnessFactor" : 0.9
            }
        }
    ],
    "meshes" : [
        {
            "name" : "Scene",
            "primitives" : [
                {
                    "attributes" : {
                        "POSITION" : 0,
                        "NORMAL" : 1,
                        "TEXCOORD_0" : 2
                    },
                    "indices" : 3,
                    "material" : 0
                }
            ]
        }
    ],
    "textures" : [
        {
            "sampler" : 0,
            "source" : 0
        }
    ],
    "images" : [
        {
            "mimeType" : "image/jpeg",
            "name" : "Texture_1px",
            "uri" : "Texture_1px.jpg"
        }
    ],
    "accessors" : [
        {
            "bufferView" : 0,
            "componentType" : 5126,
            "count" : 47860,
            "max" : [
                1548.4595947265625,
                547.5594482421875,
                1586.0799560546875
            ],
            "min" : [
                -983.9683837890625,
                -480.8370361328125,
                -1156.505859375
            ],
            "type" : "VEC3"
        },
        {
            "bufferView" : 1,
            "componentType" : 5126,
            "count" : 47860,
            "type" : "VEC3"
        },
        {
            "bufferView" : 2,
            "componentType" : 5126,
            "count" : 47860,
            "type" : "VEC2"
        },
        {
            "bufferView" : 3,
            "componentType" : 5123,
            "count" : 258435,
            "type" : "SCALAR"
        }
    ],
    "bufferViews" : [
        {
            "buffer" : 0,
            "byteLength" : 574320,
            "byteOffset" : 0
        },
        {
            "buffer" : 0,
            "byteLength" : 574320,
            "byteOffset" : 574320
        },
        {
            "buffer" : 0,
            "byteLength" : 382880,
            "byteOffset" : 1148640
        },
        {
            "buffer" : 0,
            "byteLength" : 516870,
            "byteOffset" : 1531520
        }
    ],
    "samplers" : [
        {
            "magFilter" : 9729,
            "minFilter" : 9987
        }
    ],
    "buffers" : [
        {
            "byteLength" : 2048392,
            "uri" : "8_stone.bin"
        }
    ]
}
