<?xml version="1.0" encoding="UTF-8"?><svg id="Layer_2" xmlns="http://www.w3.org/2000/svg" viewBox="0 0 161.37 285.28"><defs><style>.cls-1{stroke:#fff;stroke-miterlimit:10;stroke-width:3px;}</style></defs><g id="Layer_1-2"><path class="cls-1" d="m19.89,16.95L84.63,1.62s1.46-.49,2.92.49c1.46.97.97,5.35.97,5.35l-1.22,22.39,17.52,96.13,12.9,54.76,16.79,52.57,23.61,46.24s1.46,2.68,1.22,3.41,1.46.49-.24.73c-1.7.24-2.43,0-3.65-.97-1.22-.97-77.39-62.55-77.39-62.55,0,0-15.33-61.33-21.17-74.23-5.84-12.9-24.82-37.24-24.82-37.24l-27.5-27.5s-1.7-.49-2.68-3.41c-.97-2.92.24-5.6.24-5.6L19.89,16.95Z"/></g></svg>