<?xml version="1.0" encoding="UTF-8"?><svg id="Layer_2" xmlns="http://www.w3.org/2000/svg" viewBox="0 0 158.37 282.28"><defs><style>.cls-1{stroke-width:0px;}</style></defs><g id="Layer_1-2"><path class="cls-1" d="m18.39,15.45L83.13.12s1.46-.49,2.92.49c1.46.97.97,5.35.97,5.35l-1.22,22.39,17.52,96.13,12.9,54.76,16.79,52.57,23.61,46.24s1.46,2.68,1.22,3.41,1.46.49-.24.73c-1.7.24-2.43,0-3.65-.97s-77.39-62.55-77.39-62.55c0,0-15.33-61.33-21.17-74.23-5.84-12.9-24.82-37.24-24.82-37.24L3.05,79.71s-1.7-.49-2.68-3.41.24-5.6.24-5.6L18.39,15.45Z"/></g></svg>