{
    "asset" : {
        "generator" : "Khronos glTF Blender I/O v1.5.17",
        "version" : "2.0"
    },
    "scene" : 0,
    "scenes" : [
        {
            "name" : "Scene",
            "nodes" : [
                0
            ]
        }
    ],
    "nodes" : [
        {
            "mesh" : 0,
            "name" : "painting",
            "rotation" : [
                0.49210143089294434,
                -0.5077757835388184,
                -0.5077757239341736,
                0.4921013414859772
            ],
            "translation" : [
                0,
                50.22566223144531,
                -41.400882720947266
            ]
        }
    ],
    "materials" : [
        {
            "doubleSided" : true,
            "name" : "painting",
            "pbrMetallicRoughness" : {
                "baseColorTexture" : {
                    "index" : 0
                },
                "metallicFactor" : 0
            }
        }
    ],
    "meshes" : [
        {
            "name" : "painting",
            "primitives" : [
                {
                    "attributes" : {
                        "POSITION" : 0,
                        "NORMAL" : 1,
                        "TEXCOORD_0" : 2
                    },
                    "indices" : 3,
                    "material" : 0
                }
            ]
        }
    ],
    "textures" : [
        {
            "sampler" : 0,
            "source" : 0
        }
    ],
    "images" : [
        {
            "mimeType" : "image/jpeg",
            "name" : "painting",
            "uri" : "texture.jpg"
        }
    ],
    "accessors" : [
        {
            "bufferView" : 0,
            "componentType" : 5126,
            "count" : 280071,
            "max" : [
                48.565303802490234,
                84.21407318115234,
                3.120162010192871
            ],
            "min" : [
                -46.80393981933594,
                9.687255859375,
                -4.282511234283447
            ],
            "type" : "VEC3"
        },
        {
            "bufferView" : 1,
            "componentType" : 5126,
            "count" : 280071,
            "type" : "VEC3"
        },
        {
            "bufferView" : 2,
            "componentType" : 5126,
            "count" : 280071,
            "type" : "VEC2"
        },
        {
            "bufferView" : 3,
            "componentType" : 5125,
            "count" : 1535145,
            "type" : "SCALAR"
        }
    ],
    "bufferViews" : [
        {
            "buffer" : 0,
            "byteLength" : 3360852,
            "byteOffset" : 0
        },
        {
            "buffer" : 0,
            "byteLength" : 3360852,
            "byteOffset" : 3360852
        },
        {
            "buffer" : 0,
            "byteLength" : 2240568,
            "byteOffset" : 6721704
        },
        {
            "buffer" : 0,
            "byteLength" : 6140580,
            "byteOffset" : 8962272
        }
    ],
    "samplers" : [
        {
            "magFilter" : 9729,
            "minFilter" : 9987
        }
    ],
    "buffers" : [
        {
            "byteLength" : 15102852,
            "uri" : "6_painting.bin"
        }
    ]
}
