{
    "asset" : {
        "generator" : "Khronos glTF Blender I/O v1.5.17",
        "version" : "2.0"
    },
    "scene" : 0,
    "scenes" : [
        {
            "name" : "Scene",
            "nodes" : [
                0
            ]
        }
    ],
    "nodes" : [
        {
            "mesh" : 0,
            "name" : "model_Instrumento _yannick_20250207_224433275",
            "rotation" : [
                0.69746994972229,
                0.11634346097707748,
                -0.11634347587823868,
                0.6974698305130005
            ],
            "scale" : [
                0.0011266079964116216,
                0.0011266079964116216,
                0.0011266079964116216
            ],
            "translation" : [
                0,
                0.14604951441287994,
                0
            ]
        }
    ],
    "materials" : [
        {
            "doubleSided" : true,
            "name" : "material0",
            "pbrMetallicRoughness" : {
                "baseColorTexture" : {
                    "index" : 0
                },
                "metallicFactor" : 0
            }
        }
    ],
    "meshes" : [
        {
            "name" : "model_Instrumento _yannick_20250207_224433275",
            "primitives" : [
                {
                    "attributes" : {
                        "POSITION" : 0,
                        "NORMAL" : 1,
                        "TEXCOORD_0" : 2
                    },
                    "indices" : 3,
                    "material" : 0
                }
            ]
        }
    ],
    "textures" : [
        {
            "sampler" : 0,
            "source" : 0
        }
    ],
    "images" : [
        {
            "mimeType" : "image/jpeg",
            "name" : "texture",
            "uri" : "texture.jpg"
        }
    ],
    "accessors" : [
        {
            "bufferView" : 0,
            "componentType" : 5126,
            "count" : 36645,
            "max" : [
                470.8595275878906,
                354.16143798828125,
                100.2524642944336
            ],
            "min" : [
                -694.0432739257812,
                -265.5396728515625,
                -254.2435302734375
            ],
            "type" : "VEC3"
        },
        {
            "bufferView" : 1,
            "componentType" : 5126,
            "count" : 36645,
            "type" : "VEC3"
        },
        {
            "bufferView" : 2,
            "componentType" : 5126,
            "count" : 36645,
            "type" : "VEC2"
        },
        {
            "bufferView" : 3,
            "componentType" : 5123,
            "count" : 36837,
            "type" : "SCALAR"
        }
    ],
    "bufferViews" : [
        {
            "buffer" : 0,
            "byteLength" : 439740,
            "byteOffset" : 0
        },
        {
            "buffer" : 0,
            "byteLength" : 439740,
            "byteOffset" : 439740
        },
        {
            "buffer" : 0,
            "byteLength" : 293160,
            "byteOffset" : 879480
        },
        {
            "buffer" : 0,
            "byteLength" : 73674,
            "byteOffset" : 1172640
        }
    ],
    "samplers" : [
        {
            "magFilter" : 9729,
            "minFilter" : 9987
        }
    ],
    "buffers" : [
        {
            "byteLength" : 1246316,
            "uri" : "instrumento_exp.bin"
        }
    ]
}
