{
    "asset" : {
        "generator" : "Khronos glTF Blender I/O v1.5.17",
        "version" : "2.0"
    },
    "scene" : 0,
    "scenes" : [
        {
            "name" : "Scene",
            "nodes" : [
                0
            ]
        }
    ],
    "nodes" : [
        {
            "mesh" : 0,
            "name" : "model_Foto nice_20250202_124908214",
            "rotation" : [
                -0.6677192449569702,
                0.09869571030139923,
                0.09853140264749527,
                0.7312330007553101
            ],
            "scale" : [
                0.003261228557676077,
                0.003261228557676077,
                0.003261228557676077
            ],
            "translation" : [
                0.01625150814652443,
                0.1078469306230545,
                -0.003786677960306406
            ]
        }
    ],
    "materials" : [
        {
            "doubleSided" : true,
            "name" : "material0",
            "pbrMetallicRoughness" : {
                "baseColorTexture" : {
                    "index" : 0
                },
                "metallicFactor" : 0
            }
        }
    ],
    "meshes" : [
        {
            "name" : "model_Foto nice_20250202_124908214",
            "primitives" : [
                {
                    "attributes" : {
                        "POSITION" : 0,
                        "NORMAL" : 1,
                        "TEXCOORD_0" : 2
                    },
                    "indices" : 3,
                    "material" : 0
                }
            ]
        }
    ],
    "textures" : [
        {
            "sampler" : 0,
            "source" : 0
        }
    ],
    "images" : [
        {
            "mimeType" : "image/jpeg",
            "name" : "texture",
            "uri" : "texture.jpg"
        }
    ],
    "accessors" : [
        {
            "bufferView" : 0,
            "componentType" : 5126,
            "count" : 17736,
            "max" : [
                257.5755615234375,
                226.61961364746094,
                18.86516571044922
            ],
            "min" : [
                -250.40223693847656,
                -225.19036865234375,
                -12.538092613220215
            ],
            "type" : "VEC3"
        },
        {
            "bufferView" : 1,
            "componentType" : 5126,
            "count" : 17736,
            "type" : "VEC3"
        },
        {
            "bufferView" : 2,
            "componentType" : 5126,
            "count" : 17736,
            "type" : "VEC2"
        },
        {
            "bufferView" : 3,
            "componentType" : 5123,
            "count" : 17736,
            "type" : "SCALAR"
        }
    ],
    "bufferViews" : [
        {
            "buffer" : 0,
            "byteLength" : 212832,
            "byteOffset" : 0
        },
        {
            "buffer" : 0,
            "byteLength" : 212832,
            "byteOffset" : 212832
        },
        {
            "buffer" : 0,
            "byteLength" : 141888,
            "byteOffset" : 425664
        },
        {
            "buffer" : 0,
            "byteLength" : 35472,
            "byteOffset" : 567552
        }
    ],
    "samplers" : [
        {
            "magFilter" : 9729,
            "minFilter" : 9987
        }
    ],
    "buffers" : [
        {
            "byteLength" : 603024,
            "uri" : "foto.bin"
        }
    ]
}
