{
    "asset" : {
        "generator" : "Khronos glTF Blender I/O v1.5.17",
        "version" : "2.0"
    },
    "scene" : 0,
    "scenes" : [
        {
            "name" : "Scene",
            "nodes" : [
                0
            ]
        }
    ],
    "nodes" : [
        {
            "mesh" : 0,
            "name" : "model_Caixa_yannick_20250207_224516700",
            "rotation" : [
                0.7028734087944031,
                -0.0772593691945076,
                0.07725938409566879,
                0.7028733491897583
            ],
            "scale" : [
                0.005835455842316151,
                0.005835455842316151,
                0.005835455842316151
            ]
        }
    ],
    "materials" : [
        {
            "doubleSided" : true,
            "name" : "material0",
            "pbrMetallicRoughness" : {
                "baseColorTexture" : {
                    "index" : 0
                },
                "metallicFactor" : 0
            }
        }
    ],
    "meshes" : [
        {
            "name" : "model_Caixa_yannick_20250207_224516700",
            "primitives" : [
                {
                    "attributes" : {
                        "POSITION" : 0,
                        "NORMAL" : 1,
                        "TEXCOORD_0" : 2,
                        "COLOR_0" : 3
                    },
                    "indices" : 4,
                    "material" : 0
                }
            ]
        }
    ],
    "textures" : [
        {
            "sampler" : 0,
            "source" : 0
        }
    ],
    "images" : [
        {
            "mimeType" : "image/jpeg",
            "name" : "texture",
            "uri" : "texture.jpg"
        }
    ],
    "accessors" : [
        {
            "bufferView" : 0,
            "componentType" : 5126,
            "count" : 36164,
            "max" : [
                105.1860122680664,
                76.79757690429688,
                22.312856674194336
            ],
            "min" : [
                -85.89600372314453,
                -74.11151885986328,
                -43.101905822753906
            ],
            "type" : "VEC3"
        },
        {
            "bufferView" : 1,
            "componentType" : 5126,
            "count" : 36164,
            "type" : "VEC3"
        },
        {
            "bufferView" : 2,
            "componentType" : 5126,
            "count" : 36164,
            "type" : "VEC2"
        },
        {
            "bufferView" : 3,
            "componentType" : 5123,
            "count" : 36164,
            "normalized" : true,
            "type" : "VEC4"
        },
        {
            "bufferView" : 4,
            "componentType" : 5123,
            "count" : 36348,
            "type" : "SCALAR"
        }
    ],
    "bufferViews" : [
        {
            "buffer" : 0,
            "byteLength" : 433968,
            "byteOffset" : 0
        },
        {
            "buffer" : 0,
            "byteLength" : 433968,
            "byteOffset" : 433968
        },
        {
            "buffer" : 0,
            "byteLength" : 289312,
            "byteOffset" : 867936
        },
        {
            "buffer" : 0,
            "byteLength" : 289312,
            "byteOffset" : 1157248
        },
        {
            "buffer" : 0,
            "byteLength" : 72696,
            "byteOffset" : 1446560
        }
    ],
    "samplers" : [
        {
            "magFilter" : 9729,
            "minFilter" : 9987
        }
    ],
    "buffers" : [
        {
            "byteLength" : 1519256,
            "uri" : "caIxa.bin"
        }
    ]
}
