{
    "asset" : {
        "generator" : "Khronos glTF Blender I/O v1.5.17",
        "version" : "2.0"
    },
    "scene" : 0,
    "scenes" : [
        {
            "name" : "Scene",
            "nodes" : [
                0
            ]
        }
    ],
    "nodes" : [
        {
            "mesh" : 0,
            "name" : "model_New Qlone_20240225_115933784",
            "rotation" : [
                0.7071068286895752,
                0,
                0,
                0.7071067094802856
            ],
            "scale" : [
                0.02917921543121338,
                0.02917921543121338,
                0.02917921543121338
            ],
            "translation" : [
                0,
                4.138707160949707,
                0
            ]
        }
    ],
    "materials" : [
        {
            "doubleSided" : true,
            "name" : "material0",
            "pbrMetallicRoughness" : {
                "baseColorTexture" : {
                    "index" : 0
                },
                "metallicFactor" : 0
            }
        }
    ],
    "meshes" : [
        {
            "name" : "model_New Qlone_20240225_115933784",
            "primitives" : [
                {
                    "attributes" : {
                        "POSITION" : 0,
                        "NORMAL" : 1,
                        "TEXCOORD_0" : 2
                    },
                    "indices" : 3,
                    "material" : 0
                }
            ]
        }
    ],
    "textures" : [
        {
            "sampler" : 0,
            "source" : 0
        }
    ],
    "images" : [
        {
            "mimeType" : "image/jpeg",
            "name" : "texture",
            "uri" : "texture.jpg"
        }
    ],
    "accessors" : [
        {
            "bufferView" : 0,
            "componentType" : 5126,
            "count" : 79833,
            "max" : [
                182.14654541015625,
                175.15725708007812,
                115.69707489013672
            ],
            "min" : [
                -194.0419921875,
                -195.69692993164062,
                -198.93020629882812
            ],
            "type" : "VEC3"
        },
        {
            "bufferView" : 1,
            "componentType" : 5126,
            "count" : 79833,
            "type" : "VEC3"
        },
        {
            "bufferView" : 2,
            "componentType" : 5126,
            "count" : 79833,
            "type" : "VEC2"
        },
        {
            "bufferView" : 3,
            "componentType" : 5125,
            "count" : 79833,
            "type" : "SCALAR"
        }
    ],
    "bufferViews" : [
        {
            "buffer" : 0,
            "byteLength" : 957996,
            "byteOffset" : 0
        },
        {
            "buffer" : 0,
            "byteLength" : 957996,
            "byteOffset" : 957996
        },
        {
            "buffer" : 0,
            "byteLength" : 638664,
            "byteOffset" : 1915992
        },
        {
            "buffer" : 0,
            "byteLength" : 319332,
            "byteOffset" : 2554656
        }
    ],
    "samplers" : [
        {
            "magFilter" : 9729,
            "minFilter" : 9987
        }
    ],
    "buffers" : [
        {
            "byteLength" : 2873988,
            "uri" : "2_troffey.bin"
        }
    ]
}
