{
    "asset" : {
        "generator" : "Khronos glTF Blender I/O v1.5.17",
        "version" : "2.0"
    },
    "scene" : 0,
    "scenes" : [
        {
            "name" : "Scene",
            "nodes" : [
                0
            ]
        }
    ],
    "nodes" : [
        {
            "mesh" : 0,
            "name" : "model_New Qlone_20240225_114643939",
            "rotation" : [
                -0.4652039706707001,
                0.38796892762184143,
                0.11431623250246048,
                0.7873989939689636
            ],
            "scale" : [
                0.0642981305718422,
                0.06429813802242279,
                0.06429813802242279
            ],
            "translation" : [
                -0.6024602055549622,
                1.3719780445098877,
                0.8915280699729919
            ]
        }
    ],
    "materials" : [
        {
            "doubleSided" : true,
            "name" : "material0",
            "pbrMetallicRoughness" : {
                "baseColorTexture" : {
                    "index" : 0
                },
                "metallicFactor" : 0
            }
        }
    ],
    "meshes" : [
        {
            "name" : "model_New Qlone_20240225_114643939",
            "primitives" : [
                {
                    "attributes" : {
                        "POSITION" : 0,
                        "NORMAL" : 1,
                        "TEXCOORD_0" : 2
                    },
                    "indices" : 3,
                    "material" : 0
                }
            ]
        }
    ],
    "textures" : [
        {
            "sampler" : 0,
            "source" : 0
        }
    ],
    "images" : [
        {
            "mimeType" : "image/jpeg",
            "name" : "texture",
            "uri" : "texture.jpg"
        }
    ],
    "accessors" : [
        {
            "bufferView" : 0,
            "componentType" : 5126,
            "count" : 54297,
            "max" : [
                21.971410751342773,
                20.688962936401367,
                23.009397506713867
            ],
            "min" : [
                -21.27604866027832,
                -15.615937232971191,
                -23.508583068847656
            ],
            "type" : "VEC3"
        },
        {
            "bufferView" : 1,
            "componentType" : 5126,
            "count" : 54297,
            "type" : "VEC3"
        },
        {
            "bufferView" : 2,
            "componentType" : 5126,
            "count" : 54297,
            "type" : "VEC2"
        },
        {
            "bufferView" : 3,
            "componentType" : 5123,
            "count" : 54297,
            "type" : "SCALAR"
        }
    ],
    "bufferViews" : [
        {
            "buffer" : 0,
            "byteLength" : 651564,
            "byteOffset" : 0
        },
        {
            "buffer" : 0,
            "byteLength" : 651564,
            "byteOffset" : 651564
        },
        {
            "buffer" : 0,
            "byteLength" : 434376,
            "byteOffset" : 1303128
        },
        {
            "buffer" : 0,
            "byteLength" : 108594,
            "byteOffset" : 1737504
        }
    ],
    "samplers" : [
        {
            "magFilter" : 9729,
            "minFilter" : 9987
        }
    ],
    "buffers" : [
        {
            "byteLength" : 1846100,
            "uri" : "9_bracelet.bin"
        }
    ]
}
