{
    "asset" : {
        "generator" : "Khronos glTF Blender I/O v1.5.17",
        "version" : "2.0"
    },
    "scene" : 0,
    "scenes" : [
        {
            "name" : "Scene",
            "nodes" : [
                0
            ]
        }
    ],
    "nodes" : [
        {
            "mesh" : 0,
            "name" : "Textured_mesh_1",
            "rotation" : [
                0.03415118157863617,
                0.7376102209091187,
                -0.08987642079591751,
                0.6683465242385864
            ],
            "scale" : [
                0.03711554408073425,
                0.037115540355443954,
                0.03711554408073425
            ],
            "translation" : [
                0,
                0.09937171638011932,
                0
            ]
        }
    ],
    "materials" : [
        {
            "doubleSided" : true,
            "name" : "Textured_mesh_1",
            "pbrMetallicRoughness" : {
                "baseColorTexture" : {
                    "index" : 0
                },
                "metallicFactor" : 0
            }
        }
    ],
    "meshes" : [
        {
            "name" : "Textured_mesh_1",
            "primitives" : [
                {
                    "attributes" : {
                        "POSITION" : 0,
                        "NORMAL" : 1,
                        "TEXCOORD_0" : 2
                    },
                    "indices" : 3,
                    "material" : 0
                }
            ]
        }
    ],
    "textures" : [
        {
            "sampler" : 0,
            "source" : 0
        }
    ],
    "images" : [
        {
            "mimeType" : "image/jpeg",
            "name" : "Textured_mesh_1",
            "uri" : "Textured_mesh_1.jpg"
        }
    ],
    "accessors" : [
        {
            "bufferView" : 0,
            "componentType" : 5126,
            "count" : 65738,
            "max" : [
                23.325801849365234,
                10.812768936157227,
                21.97140121459961
            ],
            "min" : [
                -23.14933967590332,
                1.3056249618530273,
                -22.69997787475586
            ],
            "type" : "VEC3"
        },
        {
            "bufferView" : 1,
            "componentType" : 5126,
            "count" : 65738,
            "type" : "VEC3"
        },
        {
            "bufferView" : 2,
            "componentType" : 5126,
            "count" : 65738,
            "type" : "VEC2"
        },
        {
            "bufferView" : 3,
            "componentType" : 5125,
            "count" : 234513,
            "type" : "SCALAR"
        }
    ],
    "bufferViews" : [
        {
            "buffer" : 0,
            "byteLength" : 788856,
            "byteOffset" : 0
        },
        {
            "buffer" : 0,
            "byteLength" : 788856,
            "byteOffset" : 788856
        },
        {
            "buffer" : 0,
            "byteLength" : 525904,
            "byteOffset" : 1577712
        },
        {
            "buffer" : 0,
            "byteLength" : 938052,
            "byteOffset" : 2103616
        }
    ],
    "samplers" : [
        {
            "magFilter" : 9729,
            "minFilter" : 9987
        }
    ],
    "buffers" : [
        {
            "byteLength" : 3041668,
            "uri" : "computer board_1.bin"
        }
    ]
}
