{
    "asset" : {
        "generator" : "Khronos glTF Blender I/O v1.5.17",
        "version" : "2.0"
    },
    "scene" : 0,
    "scenes" : [
        {
            "name" : "Scene",
            "nodes" : [
                0,
                1
            ]
        }
    ],
    "nodes" : [
        {
            "mesh" : 0,
            "name" : "Text",
            "rotation" : [
                0.14843586087226868,
                -0.04698462411761284,
                0.9877831339836121,
                -0.006616280414164066
            ],
            "scale" : [
                0.4764311611652374,
                0.5131925344467163,
                0.617926836013794
            ],
            "translation" : [
                0,
                2.0257351398468018,
                0.2949017584323883
            ]
        },
        {
            "name" : "Spiral.001"
        }
    ],
    "meshes" : [
        {
            "name" : "Text.001",
            "primitives" : [
                {
                    "attributes" : {
                        "POSITION" : 0,
                        "NORMAL" : 1,
                        "TEXCOORD_0" : 2
                    },
                    "indices" : 3
                }
            ]
        }
    ],
    "accessors" : [
        {
            "bufferView" : 0,
            "componentType" : 5126,
            "count" : 205326,
            "max" : [
                11.827706336975098,
                4.680845737457275,
                8.885951042175293
            ],
            "min" : [
                -11.414450645446777,
                -7.41297721862793,
                -8.829070091247559
            ],
            "type" : "VEC3"
        },
        {
            "bufferView" : 1,
            "componentType" : 5126,
            "count" : 205326,
            "type" : "VEC3"
        },
        {
            "bufferView" : 2,
            "componentType" : 5126,
            "count" : 205326,
            "type" : "VEC2"
        },
        {
            "bufferView" : 3,
            "componentType" : 5125,
            "count" : 306936,
            "type" : "SCALAR"
        }
    ],
    "bufferViews" : [
        {
            "buffer" : 0,
            "byteLength" : 2463912,
            "byteOffset" : 0
        },
        {
            "buffer" : 0,
            "byteLength" : 2463912,
            "byteOffset" : 2463912
        },
        {
            "buffer" : 0,
            "byteLength" : 1642608,
            "byteOffset" : 4927824
        },
        {
            "buffer" : 0,
            "byteLength" : 1227744,
            "byteOffset" : 6570432
        }
    ],
    "buffers" : [
        {
            "byteLength" : 7798176,
            "uri" : "rio teste 2.bin"
        }
    ]
}
