{
    "asset" : {
        "generator" : "Khronos glTF Blender I/O v1.5.17",
        "version" : "2.0"
    },
    "scene" : 0,
    "scenes" : [
        {
            "name" : "Scene",
            "nodes" : [
                0
            ]
        }
    ],
    "nodes" : [
        {
            "mesh" : 0,
            "name" : "model_medal_20240510_094631135",
            "rotation" : [
                0.9255440831184387,
                -0.019816940650343895,
                -0.006647131405770779,
                0.3780624270439148
            ],
            "scale" : [
                0.16109949350357056,
                0.16109949350357056,
                0.16109949350357056
            ],
            "translation" : [
                0.9276255369186401,
                3.249082565307617,
                -0.9058666229248047
            ]
        }
    ],
    "materials" : [
        {
            "doubleSided" : true,
            "name" : "material0",
            "pbrMetallicRoughness" : {
                "baseColorTexture" : {
                    "index" : 0
                },
                "metallicFactor" : 0
            }
        }
    ],
    "meshes" : [
        {
            "name" : "model_medal_20240510_094631135",
            "primitives" : [
                {
                    "attributes" : {
                        "POSITION" : 0,
                        "NORMAL" : 1,
                        "TEXCOORD_0" : 2
                    },
                    "indices" : 3,
                    "material" : 0
                }
            ]
        }
    ],
    "textures" : [
        {
            "sampler" : 0,
            "source" : 0
        }
    ],
    "images" : [
        {
            "mimeType" : "image/jpeg",
            "name" : "texture",
            "uri" : "texture.jpg"
        }
    ],
    "accessors" : [
        {
            "bufferView" : 0,
            "componentType" : 5126,
            "count" : 26094,
            "max" : [
                13.974119186401367,
                21.097728729248047,
                6.75938081741333
            ],
            "min" : [
                -13.110641479492188,
                -28.416351318359375,
                -15.585329055786133
            ],
            "type" : "VEC3"
        },
        {
            "bufferView" : 1,
            "componentType" : 5126,
            "count" : 26094,
            "type" : "VEC3"
        },
        {
            "bufferView" : 2,
            "componentType" : 5126,
            "count" : 26094,
            "type" : "VEC2"
        },
        {
            "bufferView" : 3,
            "componentType" : 5123,
            "count" : 26094,
            "type" : "SCALAR"
        }
    ],
    "bufferViews" : [
        {
            "buffer" : 0,
            "byteLength" : 313128,
            "byteOffset" : 0
        },
        {
            "buffer" : 0,
            "byteLength" : 313128,
            "byteOffset" : 313128
        },
        {
            "buffer" : 0,
            "byteLength" : 208752,
            "byteOffset" : 626256
        },
        {
            "buffer" : 0,
            "byteLength" : 52188,
            "byteOffset" : 835008
        }
    ],
    "samplers" : [
        {
            "magFilter" : 9729,
            "minFilter" : 9987
        }
    ],
    "buffers" : [
        {
            "byteLength" : 887196,
            "uri" : "medal.bin"
        }
    ]
}
